<svg width="256" height="228" fill="none" xmlns="http://www.w3.org/2000/svg" viewBox="0 0 128 128">
  <path d="M112.2 66.1c-1.5-3.5-5-5.5-8.8-5.5h-9.7V52.5c0-2.8-2.2-5-5-5h-15c-2.8 0-5 2.2-5 5v9.7H54.9c-3.8 0-7.3 2-8.8 5.5 -1.5 3.5-0.9 7.8 1.7 10.7l22.1 22.1c1.5 1.5 3.5 2.3 5.6 2.3s4.1-0.7 5.6-2.3l22.1-22.1C113.1 73.9 113.7 69.6 112.2 66.1zM87.4 45.3h-18.8c-1.3 0-2.3-1-2.3-2.3v-9.7H57.9c-1.3 0-2.3-1-2.3-2.3v-15c0-1.3 1-2.3 2.3-2.3h9.7V18.2c0-1.3 1-2.3 2.3-2.3h15c1.3 0 2.3 1 2.3 2.3v9.7h9.7c1.3 0 2.3 1 2.3 2.3V45.3z" fill="#83CD29" />
  <path d="M100.3 66.1c-1.5-3.5-5-5.5-8.8-5.5h-9.7V52.5c0-2.8-2.2-5-5-5h-15c-2.8 0-5 2.2-5 5v9.7H32.7c-3.8 0-7.3 2-8.8 5.5 -1.5 3.5-0.9 7.8 1.7 10.7l22.1 22.1c1.5 1.5 3.5 2.3 5.6 2.3s4.1-0.7 5.6-2.3l22.1-22.1C101.2 73.9 101.8 69.6 100.3 66.1zM59.5 45.3H40.7c-1.3 0-2.3-1-2.3-2.3v-9.7H20.2c-1.3 0-2.3-1-2.3-2.3v-15c0-1.3 1-2.3 2.3-2.3h9.7V18.2c0-1.3 1-2.3 2.3" fill="#2B2D42"/>
</svg>